<?xml version="1.0" encoding="utf-8"?>
<!-- Generator: Adobe Illustrator 25.0.0, SVG Export Plug-In . SVG Version: 6.00 Build 0)  -->
<svg version="1.1" xmlns="http://www.w3.org/2000/svg" xmlns:xlink="http://www.w3.org/1999/xlink" x="0px" y="0px"
	 viewBox="0 0 1860.86 523.95" style="enable-background:new 0 0 1860.86 523.95;" xml:space="preserve">
<style type="text/css">
	.st0{fill:#192A67;}
	.st1{fill:none;}
	.st2{fill:#FFDD00;}
</style>
<g id="EN_1_">
	<g>
		<path class="st0" d="M1096.96,211.89c-8.29,0-16.46-3.47-22.4-10.19c-6.5-7.39-9.18-17.81-9.18-29.23
			c0-22.85,13.66-39.65,32.26-39.65c7.39,0,14.11,2.24,19.38,6.27l-4.93,5.94c-4.59-3.36-8.96-4.82-14.56-4.82
			c-8.85,0-15.23,4.59-18.93,13.22c-2.24,5.15-3.25,11.31-3.25,20.38c0,7.39,0.67,11.76,2.46,16.24
			c3.92,9.63,11.87,14.34,20.61,14.34c5.71,0,10.08-1.46,15.01-4.93l4.93,6.16C1112.19,209.65,1104.58,211.89,1096.96,211.89z"/>
		<path class="st0" d="M1149.71,212.11c-15.34,0-24.08-11.31-24.08-29.68c0-18.14,9.07-29.23,23.74-29.23
			c9.3,0,15.34,4.26,19.15,9.74c3.47,5.04,5.15,11.65,5.15,20.72C1173.68,202.26,1163.71,212.11,1149.71,212.11z M1161.14,167.54
			c-2.35-4.93-7.28-7.17-11.87-7.17c-4.93,0-9.52,2.35-11.42,6.05c-1.79,3.47-2.69,7.95-2.69,14.56c0,7.84,1.34,14.78,3.47,18.26
			c2.02,3.36,6.5,5.6,11.31,5.6c5.82,0,10.19-3.02,12.1-8.4c1.23-3.47,1.68-6.61,1.68-12.1
			C1163.71,176.5,1162.93,171.23,1161.14,167.54z"/>
		<path class="st0" d="M1251.75,210.66v-41.22c0-5.38-2.46-8.18-7.17-8.18c-5.04,0-8.96,3.25-14.78,8.62v40.77h-8.85v-39.65
			c0-3.36-0.34-5.6-1.57-7.17c-1.34-1.57-3.14-2.24-5.71-2.24c-4.26,0-8.4,2.13-14.22,7.39v41.66h-8.4v-43.23
			c0-7.17-1.57-11.09-2.02-11.87l8.51-2.02c0.45,0.9,2.02,4.82,2.02,8.29c3.7-4.14,10.53-8.4,16.24-8.4c5.49,0,10.98,3.36,12.99,9.3
			c5.38-5.71,12.21-9.3,17.92-9.3c8.29,0,14,6.27,14,15.12v42.11H1251.75z"/>
		<path class="st0" d="M1342.69,210.66v-41.22c0-5.38-2.46-8.18-7.17-8.18c-5.04,0-8.96,3.25-14.78,8.62v40.77h-8.85v-39.65
			c0-3.36-0.34-5.6-1.57-7.17c-1.34-1.57-3.14-2.24-5.71-2.24c-4.26,0-8.4,2.13-14.22,7.39v41.66h-8.4v-43.23
			c0-7.17-1.57-11.09-2.02-11.87l8.51-2.02c0.45,0.9,2.02,4.82,2.02,8.29c3.7-4.14,10.53-8.4,16.24-8.4c5.49,0,10.98,3.36,12.99,9.3
			c5.38-5.71,12.21-9.3,17.92-9.3c8.29,0,14,6.27,14,15.12v42.11H1342.69z"/>
		<path class="st0" d="M1412.24,213.01c-3.7-3.02-5.26-5.26-6.05-8.96c-4.26,5.71-10.08,8.51-17.7,8.51
			c-7.06,0-12.32-3.02-14.67-7.95c-1.01-2.13-1.46-5.04-1.46-8.29v-40.99l8.62-1.68v40.1c0,5.26,0.78,7.62,3.36,9.41
			c1.79,1.23,4.37,1.9,6.83,1.9c5.49,0,11.2-4.03,14.22-10.08v-39.54l8.62-1.46v40.66c0,7.06,1.01,9.86,3.81,12.43L1412.24,213.01z"
			/>
		<path class="st0" d="M1466.34,210.66v-37.74c0-5.94-0.45-7.39-2.02-9.3c-1.23-1.46-3.58-2.35-6.16-2.35
			c-4.48,0-11.42,3.58-15.46,7.84v41.55h-8.51v-43.01c0-7.06-1.68-10.98-2.13-11.76l8.51-2.35c0.45,0.78,2.02,4.7,2.02,8.74
			c5.82-5.82,11.65-8.62,17.58-8.62c6.05,0,11.42,3.25,13.66,8.18c0.9,2.02,1.34,4.26,1.34,6.5v42.34H1466.34z"/>
		<path class="st0" d="M1501.17,144.47c-3.81,0-6.83-3.02-6.83-6.72c0-3.81,3.02-6.94,6.83-6.94c3.81,0,6.83,3.02,6.83,6.83
			C1508,141.44,1504.98,144.47,1501.17,144.47z M1496.46,210.66v-55.55l9.07-1.46v57.01H1496.46z"/>
		<path class="st0" d="M1546.64,211.89c-7.95,0-13.89-2.8-17.81-8.4c-3.7-5.38-5.38-11.54-5.38-19.82c0-12.21,3.58-18.93,8.4-23.74
			c4.37-4.37,9.18-6.5,15.12-6.5c7.06,0,11.2,2.69,15.23,6.05l-4.82,6.05c-3.92-3.25-6.38-4.48-10.64-4.48
			c-4.37,0-8.51,2.46-10.53,6.27c-2.13,3.92-3.14,10.08-3.14,18.26c0,12.54,4.82,19.38,13.78,19.38c4.48,0,8.74-2.13,11.98-6.05
			l4.82,5.6C1558.51,209.76,1553.58,211.89,1546.64,211.89z"/>
		<path class="st0" d="M1615.41,212.79c-3.81-1.23-6.61-4.26-7.62-8.18c-5.38,5.38-9.74,7.5-16.13,7.5
			c-13.78,0-17.92-8.4-17.92-15.9c0-12.66,10.86-20.05,29.57-20.05c1.23,0,2.13,0,3.92,0.11v-3.92c0-4.93-0.22-6.94-1.79-8.74
			c-1.79-2.02-4.03-3.02-7.5-3.02c-6.27,0-14.22,3.36-17.81,6.61l-4.37-6.27c7.39-4.93,15.34-7.5,23.41-7.5
			c7.73,0,13.1,3.02,15.46,8.74c1.23,3.02,1.34,7.28,1.23,12.32l-0.45,18.37c-0.22,9.07,0.34,11.42,4.48,13.66L1615.41,212.79z
			 M1602.64,182.1c-14.11,0-19.15,4.82-19.15,13.33c0,6.61,3.25,10.19,9.63,10.19c5.71,0,10.98-3.47,13.55-8.74l0.34-14.56
			C1605.89,182.21,1603.87,182.1,1602.64,182.1z"/>
		<path class="st0" d="M1657.18,161.49h-11.65v35.95c0,6.16,1.68,8.29,7.17,8.29c2.46,0,3.92-0.34,5.49-1.12l1.23,5.6
			c-2.8,1.46-5.94,2.24-9.86,2.24c-2.91,0-5.15-0.56-7.28-1.57c-3.92-1.9-5.38-5.49-5.38-11.09v-38.3h-7.28v-6.61h7.28
			c0-4.82,0.67-12.32,0.9-14.11l9.18-2.02c-0.22,1.79-1.12,9.52-1.12,16.13h14L1657.18,161.49z"/>
		<path class="st0" d="M1677.45,144.47c-3.81,0-6.83-3.02-6.83-6.72c0-3.81,3.02-6.94,6.83-6.94c3.81,0,6.83,3.02,6.83,6.83
			C1684.28,141.44,1681.26,144.47,1677.45,144.47z M1672.75,210.66v-55.55l9.07-1.46v57.01H1672.75z"/>
		<path class="st0" d="M1723.26,212.11c-15.34,0-24.08-11.31-24.08-29.68c0-18.14,9.07-29.23,23.74-29.23
			c9.3,0,15.34,4.26,19.15,9.74c3.47,5.04,5.15,11.65,5.15,20.72C1747.23,202.26,1737.26,212.11,1723.26,212.11z M1734.68,167.54
			c-2.35-4.93-7.28-7.17-11.87-7.17c-4.93,0-9.52,2.35-11.42,6.05c-1.79,3.47-2.69,7.95-2.69,14.56c0,7.84,1.34,14.78,3.47,18.26
			c2.02,3.36,6.5,5.6,11.31,5.6c5.82,0,10.19-3.02,12.1-8.4c1.23-3.47,1.68-6.61,1.68-12.1
			C1737.26,176.5,1736.48,171.23,1734.68,167.54z"/>
		<path class="st0" d="M1796.73,210.66v-37.74c0-5.94-0.45-7.39-2.02-9.3c-1.23-1.46-3.58-2.35-6.16-2.35
			c-4.48,0-11.42,3.58-15.46,7.84v41.55h-8.51v-43.01c0-7.06-1.68-10.98-2.13-11.76l8.51-2.35c0.45,0.78,2.02,4.7,2.02,8.74
			c5.82-5.82,11.65-8.62,17.58-8.62c6.05,0,11.42,3.25,13.66,8.18c0.9,2.02,1.34,4.26,1.34,6.5v42.34H1796.73z"/>
		<path class="st0" d="M1106.48,311.79c-3.81-1.23-6.61-4.26-7.62-8.18c-5.38,5.38-9.74,7.5-16.13,7.5
			c-13.78,0-17.92-8.4-17.92-15.9c0-12.66,10.86-20.05,29.57-20.05c1.23,0,2.13,0,3.92,0.11v-3.92c0-4.93-0.22-6.94-1.79-8.74
			c-1.79-2.02-4.03-3.02-7.5-3.02c-6.27,0-14.22,3.36-17.81,6.61l-4.37-6.27c7.39-4.93,15.34-7.5,23.41-7.5
			c7.73,0,13.1,3.02,15.46,8.74c1.23,3.02,1.34,7.28,1.23,12.32l-0.45,18.37c-0.22,9.07,0.34,11.42,4.48,13.66L1106.48,311.79z
			 M1093.71,281.1c-14.11,0-19.15,4.82-19.15,13.33c0,6.61,3.25,10.19,9.63,10.19c5.71,0,10.98-3.47,13.55-8.74l0.34-14.56
			C1096.96,281.21,1094.95,281.1,1093.71,281.1z"/>
		<path class="st0" d="M1160.13,309.66v-37.74c0-5.94-0.45-7.39-2.02-9.3c-1.23-1.46-3.58-2.35-6.16-2.35
			c-4.48,0-11.42,3.58-15.46,7.84v41.55h-8.51v-43.01c0-7.06-1.68-10.98-2.13-11.76l8.51-2.35c0.45,0.78,2.02,4.7,2.02,8.74
			c5.82-5.82,11.65-8.62,17.58-8.62c6.05,0,11.42,3.25,13.66,8.18c0.9,2.02,1.34,4.26,1.34,6.5v42.34H1160.13z"/>
		<path class="st0" d="M1225.65,309.66c-0.22-0.56-1.12-3.14-1.23-5.71c-4.03,4.59-8.29,6.5-14.78,6.5
			c-14.45,0-22.74-10.42-22.74-28.22c0-11.87,3.92-20.61,11.54-25.87c3.58-2.46,6.72-3.47,10.75-3.47c6.27,0,11.76,2.58,15.12,7.06
			c0-0.9-0.11-5.04-0.11-8.62V227.9l8.74,1.46v62.27c0,9.63,0.45,14.78,1.68,18.03H1225.65z M1224.08,265.87
			c-2.8-3.92-6.94-5.82-13.55-5.82c-4.37,0-8.06,2.02-10.42,5.82c-2.69,4.26-3.58,8.29-3.58,16.13c0,6.5,0.45,11.31,2.24,14.56
			c2.58,4.59,6.05,6.5,11.2,6.5c4.59,0,7.17-1.01,10.75-3.58c1.79-1.23,3.02-3.25,3.36-4.03V265.87z"/>
		<path class="st0" d="M1323.09,300.03c-6.72,7.5-13.44,9.63-24.19,9.63h-20.05v-76.83h15.34c11.76,0,17.14,0.56,24.64,5.94
			c8.74,6.27,12.99,17.58,12.99,32.59C1331.83,284.79,1328.24,294.31,1323.09,300.03z M1315.25,247.39
			c-5.04-5.94-9.97-7.06-18.03-7.06h-9.18v61.71h9.18c7.95,0,15.34-0.9,19.49-8.06c3.47-5.94,5.15-13.44,5.15-21.5
			C1321.86,260.94,1320.4,253.55,1315.25,247.39z"/>
		<path class="st0" d="M1354.45,243.47c-3.81,0-6.83-3.02-6.83-6.72c0-3.81,3.02-6.94,6.83-6.94c3.81,0,6.83,3.02,6.83,6.83
			C1361.28,240.44,1358.26,243.47,1354.45,243.47z M1349.75,309.66v-55.55l9.07-1.46v57.01H1349.75z"/>
		<path class="st0" d="M1394.99,311.34c-7.06,0-14.78-2.13-20.5-5.6l3.36-6.5c5.71,3.47,11.54,5.26,17.7,5.26
			c6.83,0,11.31-3.7,11.31-9.63c0-5.04-2.8-7.84-9.18-9.18l-6.94-1.46c-9.18-1.9-14.11-7.62-14.11-15.34
			c0-10.08,8.18-17.14,19.82-17.14c5.82,0,12.32,1.79,17.02,4.48l-3.25,6.5c-4.93-2.35-9.07-4.03-14-4.03
			c-6.38,0-10.53,3.7-10.53,9.18c0,4.26,2.13,6.83,8.06,8.06l7.39,1.57c10.08,2.13,14.9,7.28,14.9,15.57
			C1416.05,303.95,1407.54,311.34,1394.99,311.34z"/>
		<path class="st0" d="M1452.56,260.49h-11.65v35.95c0,6.16,1.68,8.29,7.17,8.29c2.46,0,3.92-0.34,5.49-1.12l1.23,5.6
			c-2.8,1.46-5.94,2.24-9.86,2.24c-2.91,0-5.15-0.56-7.28-1.57c-3.92-1.9-5.38-5.49-5.38-11.09v-38.3h-7.28v-6.61h7.28
			c0-4.82,0.67-12.32,0.9-14.11l9.18-2.02c-0.22,1.79-1.12,9.52-1.12,16.13h14L1452.56,260.49z"/>
		<path class="st0" d="M1490.75,262.28c-0.56-0.22-1.57-0.45-2.46-0.45c-3.36,0-6.72,1.46-9.3,4.03s-3.25,4.26-3.25,8.85v34.94
			h-8.74v-43.01c0-7.28-1.57-11.09-1.9-11.87l8.74-2.35c0.45,0.9,2.13,4.93,1.79,9.07c4.03-5.71,9.97-9.3,15.68-9.3
			c1.34,0,2.69,0.45,3.02,0.56L1490.75,262.28z"/>
		<path class="st0" d="M1508,243.47c-3.81,0-6.83-3.02-6.83-6.72c0-3.81,3.02-6.94,6.83-6.94c3.81,0,6.83,3.02,6.83,6.83
			C1514.83,240.44,1511.81,243.47,1508,243.47z M1503.3,309.66v-55.55l9.07-1.46v57.01H1503.3z"/>
		<path class="st0" d="M1557.06,311c-5.82,0-12.21-3.25-15.34-7.39c-0.22,2.35-0.45,3.81-1.57,6.05h-8.74
			c1.23-2.69,1.68-6.38,1.68-13.89v-54.88c0-6.5-1.12-10.64-1.46-11.42l8.74-1.68c0.34,0.9,1.46,5.6,1.46,13.22v12.99
			c0,2.46-0.22,5.49-0.22,6.16c5.49-5.38,10.08-7.5,16.02-7.5c13.33,0,21.62,10.86,21.62,28.34
			C1579.23,298.91,1570.38,311,1557.06,311z M1566.24,265.42c-2.13-3.02-6.16-4.82-10.53-4.82c-5.49,0-10.98,3.14-14,7.28v28.67
			c2.91,3.81,8.51,6.72,13.78,6.72c3.81,0,8.06-2.02,10.08-4.93c2.02-3.02,3.92-8.51,3.92-17.92
			C1569.49,273.03,1568.59,268.67,1566.24,265.42z"/>
		<path class="st0" d="M1635.91,312.01c-3.7-3.02-5.26-5.26-6.05-8.96c-4.26,5.71-10.08,8.51-17.7,8.51
			c-7.06,0-12.32-3.02-14.67-7.95c-1.01-2.13-1.46-5.04-1.46-8.29v-40.99l8.62-1.68v40.1c0,5.26,0.78,7.62,3.36,9.41
			c1.79,1.23,4.37,1.9,6.83,1.9c5.49,0,11.2-4.03,14.22-10.08v-39.54l8.62-1.46v40.66c0,7.06,1.01,9.86,3.81,12.43L1635.91,312.01z"
			/>
		<path class="st0" d="M1679.25,260.49h-11.65v35.95c0,6.16,1.68,8.29,7.17,8.29c2.46,0,3.92-0.34,5.49-1.12l1.23,5.6
			c-2.8,1.46-5.94,2.24-9.86,2.24c-2.91,0-5.15-0.56-7.28-1.57c-3.92-1.9-5.38-5.49-5.38-11.09v-38.3h-7.28v-6.61h7.28
			c0-4.82,0.67-12.32,0.9-14.11l9.18-2.02c-0.22,1.79-1.12,9.52-1.12,16.13h14L1679.25,260.49z"/>
		<path class="st0" d="M1700.98,283.23v1.34c0,5.26,0.67,9.3,2.58,12.21c3.14,4.82,8.29,6.83,13.89,6.83
			c5.38,0,9.74-1.68,13.66-5.26l3.36,5.6c-4.93,4.48-11.65,6.94-18.82,6.94c-15.46,0-24.75-11.2-24.75-29.68
			c0-9.41,2.02-15.46,6.72-21.06c4.48-5.26,9.97-7.73,16.69-7.73c6.05,0,11.31,2.13,15.12,6.05c4.82,4.93,6.38,10.19,6.38,23.52
			v1.23H1700.98z M1723.94,264.19c-1.9-3.02-5.82-4.93-10.08-4.93c-7.95,0-12.43,5.82-12.88,17.36h25.54
			C1726.4,270.57,1725.62,266.87,1723.94,264.19z"/>
		<path class="st0" d="M1788,309.66c-0.22-0.56-1.12-3.14-1.23-5.71c-4.03,4.59-8.29,6.5-14.78,6.5
			c-14.45,0-22.74-10.42-22.74-28.22c0-11.87,3.92-20.61,11.54-25.87c3.58-2.46,6.72-3.47,10.75-3.47c6.27,0,11.76,2.58,15.12,7.06
			c0-0.9-0.11-5.04-0.11-8.62V227.9l8.74,1.46v62.27c0,9.63,0.45,14.78,1.68,18.03H1788z M1786.43,265.87
			c-2.8-3.92-6.94-5.82-13.55-5.82c-4.37,0-8.06,2.02-10.42,5.82c-2.69,4.26-3.58,8.29-3.58,16.13c0,6.5,0.45,11.31,2.24,14.56
			c2.58,4.59,6.05,6.5,11.2,6.5c4.59,0,7.17-1.01,10.75-3.58c1.79-1.23,3.02-3.25,3.36-4.03V265.87z"/>
		<path class="st0" d="M1106.15,405.41c-5.04,3.25-10.19,4.7-17.25,4.7c-9.18,0-17.02-2.24-24.64-6.94l4.03-7.17
			c6.38,4.59,12.88,6.61,20.61,6.61c5.82,0,8.96-0.9,12.21-3.36c3.7-2.8,5.49-6.5,5.49-10.98c0-6.83-4.48-11.54-13.78-14.34
			l-7.73-2.35c-6.94-2.13-10.64-3.7-13.66-6.83c-3.14-3.36-4.82-7.62-4.82-12.54c0-13.1,9.97-22.06,24.86-22.06
			c8.29,0,15.9,2.46,23.18,7.39l-4.03,6.61c-7.39-4.82-12.1-6.5-18.7-6.5c-9.63,0-15.34,4.82-15.34,12.66
			c0,6.16,3.7,9.63,12.77,12.54l8.85,2.8c6.83,2.13,10.42,4.14,13.55,7.73s5.04,8.74,5.04,13.55
			C1116.79,394.1,1112.98,401.04,1106.15,405.41z"/>
		<path class="st0" d="M1151.84,410.67c-3.7,11.2-8.29,18.59-18.03,20.94l-2.58-5.94c7.17-2.24,9.86-5.82,12.88-17.14l-3.58,0.56
			c-0.67-3.58-3.7-14.45-5.6-20.05l-11.98-34.94l8.62-2.91l11.42,36.18c1.46,4.7,3.02,12.21,3.36,13.89h0.22
			c1.12-3.92,2.35-7.84,3.47-11.76l10.98-36.62h9.97L1151.84,410.67z"/>
		<path class="st0" d="M1198.21,410.34c-7.06,0-14.78-2.13-20.5-5.6l3.36-6.5c5.71,3.47,11.54,5.26,17.7,5.26
			c6.83,0,11.31-3.7,11.31-9.63c0-5.04-2.8-7.84-9.18-9.18l-6.94-1.46c-9.18-1.9-14.11-7.62-14.11-15.34
			c0-10.08,8.18-17.14,19.82-17.14c5.82,0,12.32,1.79,17.02,4.48l-3.25,6.5c-4.93-2.35-9.07-4.03-14-4.03
			c-6.38,0-10.53,3.7-10.53,9.18c0,4.26,2.13,6.83,8.06,8.06l7.39,1.57c10.08,2.13,14.9,7.28,14.9,15.57
			C1219.27,402.95,1210.75,410.34,1198.21,410.34z"/>
		<path class="st0" d="M1255.78,359.49h-11.65v35.95c0,6.16,1.68,8.29,7.17,8.29c2.46,0,3.92-0.34,5.49-1.12l1.23,5.6
			c-2.8,1.46-5.94,2.24-9.86,2.24c-2.91,0-5.15-0.56-7.28-1.57c-3.92-1.9-5.38-5.49-5.38-11.09v-38.3h-7.28v-6.61h7.28
			c0-4.82,0.67-12.32,0.9-14.11l9.18-2.02c-0.22,1.79-1.12,9.52-1.12,16.13h14L1255.78,359.49z"/>
		<path class="st0" d="M1277.51,382.23v1.34c0,5.26,0.67,9.3,2.58,12.21c3.14,4.82,8.29,6.83,13.89,6.83
			c5.38,0,9.74-1.68,13.66-5.26l3.36,5.6c-4.93,4.48-11.65,6.94-18.82,6.94c-15.46,0-24.75-11.2-24.75-29.68
			c0-9.41,2.02-15.46,6.72-21.06c4.48-5.26,9.97-7.73,16.69-7.73c6.05,0,11.31,2.13,15.12,6.05c4.82,4.93,6.38,10.19,6.38,23.52
			v1.23H1277.51z M1300.47,363.19c-1.9-3.02-5.82-4.93-10.08-4.93c-7.95,0-12.43,5.82-12.88,17.36h25.54
			C1302.93,369.57,1302.15,365.88,1300.47,363.19z"/>
		<path class="st0" d="M1389.84,408.66v-41.22c0-5.38-2.46-8.18-7.17-8.18c-5.04,0-8.96,3.25-14.78,8.62v40.77h-8.85v-39.65
			c0-3.36-0.34-5.6-1.57-7.17c-1.34-1.57-3.14-2.24-5.71-2.24c-4.26,0-8.4,2.13-14.22,7.39v41.66h-8.4v-43.23
			c0-7.17-1.57-11.09-2.02-11.87l8.51-2.02c0.45,0.9,2.02,4.82,2.02,8.29c3.7-4.14,10.53-8.4,16.24-8.4c5.49,0,10.98,3.36,12.99,9.3
			c5.38-5.71,12.21-9.3,17.92-9.3c8.29,0,14,6.27,14,15.12v42.11H1389.84z"/>
		<path class="st0" d="M1436.1,410.34c-7.06,0-14.78-2.13-20.5-5.6l3.36-6.5c5.71,3.47,11.54,5.26,17.7,5.26
			c6.83,0,11.31-3.7,11.31-9.63c0-5.04-2.8-7.84-9.18-9.18l-6.94-1.46c-9.18-1.9-14.11-7.62-14.11-15.34
			c0-10.08,8.18-17.14,19.82-17.14c5.82,0,12.32,1.79,17.02,4.48l-3.25,6.5c-4.93-2.35-9.07-4.03-14-4.03
			c-6.38,0-10.53,3.7-10.53,9.18c0,4.26,2.13,6.83,8.06,8.06l7.39,1.57c10.08,2.13,14.9,7.28,14.9,15.57
			C1457.15,402.95,1448.64,410.34,1436.1,410.34z"/>
	</g>
	<rect x="840.01" y="281.54" class="st1" width="2.41" height="0"/>
</g>
<g id="Ebene_4">
	<rect x="1004.08" y="132.81" class="st0" width="8.2" height="277.57"/>
</g>
<g id="Ebene_10">
	<g>
		<path class="st2" d="M216.67,408.86l-89.25-147.53l90-129.2l36.07,0.02L162.37,261.8l91.44,147.05H216.67z"/>
		<path class="st0" d="M456.82,415.33c-8.8-6.4-14-13.6-17.6-25.2c-14.8,16.8-34.4,24.8-57.6,24.8c-22.8,0-40.4-8-50.4-20
			c-8-9.6-11.2-22.8-11.2-48v-137.2l43.2-8v135.6c0,25.2,3.6,43.6,29.6,43.6c14.8,0,32.8-12,39.6-26.4v-144.8l42.4-8v152.4
			c0,27.2,10,38.4,12.4,40.4L456.82,415.33z"/>
		<path class="st0" d="M642.81,410.13h-42.8l-93.2-278h50.4l50,156.8c7.2,22,12,42,14.4,55.6h0.8c3.2-13.2,7.2-29.2,16.8-58
			l50.8-154.4h48L642.81,410.13z"/>
		<path class="st0" d="M838.81,414.13c-31.6,0-63.6-8.4-90.8-24.8l17.6-35.2c24.8,14.4,46.8,22.8,74.8,22.8c34,0,54.4-16.4,54.4-44
			c0-20.4-12.8-33.2-41.2-41.2l-29.6-8.4c-25.2-7.2-43.2-17.6-53.6-33.2c-7.6-11.2-11.6-24.4-11.6-40.4c0-48.8,38.4-82,94-82
			c31.6,0,63.2,9.2,87.6,26.4l-20.8,32.4c-25.6-15.2-43.2-21.2-65.2-21.2c-27.2,0-45.2,14.8-45.2,37.6c0,17.2,9.6,26,36.8,34
			l32.8,9.6c40,11.6,68,37.2,68,78.8C946.81,371.33,909.61,414.13,838.81,414.13z"/>
		<path class="st2" d="M261.18,408.65l-89.25-147.53l90-129.2l36.07,0.02L206.89,261.6l91.44,147.05H261.18z"/>
	</g>
	<rect x="79.9" y="132.06" class="st0" width="46.8" height="276.8"/>
</g>
</svg>
